<svg width="39" height="39" viewBox="0 0 39 39" fill="none" xmlns="http://www.w3.org/2000/svg">
<g clip-path="url(#clip0_891_2612)">
<path d="M19.5 0C8.73054 0 0 8.73054 0 19.5C0 28.6447 6.29616 36.3184 14.7896 38.4259V25.4592H10.7687V19.5H14.7896V16.9322C14.7896 10.2952 17.7934 7.2189 24.3095 7.2189C25.545 7.2189 27.6767 7.46148 28.5488 7.70328V13.1048C28.0886 13.0564 27.2891 13.0322 26.2961 13.0322C23.0989 13.0322 21.8634 14.2436 21.8634 17.3924V19.5H28.2329L27.1385 25.4592H21.8634V38.8573C31.519 37.6912 39.0008 29.47 39.0008 19.5C39 8.73054 30.2695 0 19.5 0Z" fill="black"/>
</g>
<defs>
<clipPath id="clip0_891_2612">
<rect width="39" height="39" fill="white"/>
</clipPath>
</defs>
</svg>
