<svg width="40" height="39" viewBox="0 0 40 39" fill="none" xmlns="http://www.w3.org/2000/svg">
<g clip-path="url(#clip0_891_2611)">
<path d="M37.0391 0H2.95312C1.32031 0 0 1.25684 0 2.81074V36.1816C0 37.7355 1.32031 39 2.95312 39H37.0391C38.6719 39 40 37.7355 40 36.1893V2.81074C40 1.25684 38.6719 0 37.0391 0ZM11.8672 33.2338H5.92969V14.6174H11.8672V33.2338ZM8.89844 12.0809C6.99219 12.0809 5.45312 10.5803 5.45312 8.7293C5.45312 6.87832 6.99219 5.37773 8.89844 5.37773C10.7969 5.37773 12.3359 6.87832 12.3359 8.7293C12.3359 10.5727 10.7969 12.0809 8.89844 12.0809ZM34.0859 33.2338H28.1562V24.1846C28.1562 22.0289 28.1172 19.2486 25.0703 19.2486C21.9844 19.2486 21.5156 21.6023 21.5156 24.0322V33.2338H15.5938V14.6174H21.2812V17.1615H21.3594C22.1484 15.699 24.0859 14.1527 26.9688 14.1527C32.9766 14.1527 34.0859 18.007 34.0859 23.0191V33.2338Z" fill="black"/>
</g>
<defs>
<clipPath id="clip0_891_2611">
<rect width="40" height="39" fill="white"/>
</clipPath>
</defs>
</svg>
