<svg width="49" height="49" viewBox="0 0 49 49" fill="none" xmlns="http://www.w3.org/2000/svg">
<path d="M48.5119 14.6998C48.5119 14.6998 48.0334 11.3215 46.5596 9.83809C44.6934 7.88574 42.607 7.87617 41.65 7.76133C34.7977 7.26367 24.5096 7.26367 24.5096 7.26367H24.4904C24.4904 7.26367 14.2023 7.26367 7.35 7.76133C6.39297 7.87617 4.30664 7.88574 2.44043 9.83809C0.966602 11.3215 0.497656 14.6998 0.497656 14.6998C0.497656 14.6998 0 18.6715 0 22.6336V26.3469C0 30.309 0.488086 34.2807 0.488086 34.2807C0.488086 34.2807 0.966601 37.659 2.43086 39.1424C4.29707 41.0947 6.74707 41.0277 7.83809 41.2383C11.7619 41.6115 24.5 41.7264 24.5 41.7264C24.5 41.7264 34.7977 41.7072 41.65 41.2191C42.607 41.1043 44.6934 41.0947 46.5596 39.1424C48.0334 37.659 48.5119 34.2807 48.5119 34.2807C48.5119 34.2807 49 30.3186 49 26.3469V22.6336C49 18.6715 48.5119 14.6998 48.5119 14.6998ZM19.4373 30.8545V17.0828L32.673 23.9926L19.4373 30.8545Z" fill="black"/>
</svg>
